<?xml version="1.0" encoding="UTF-8" standalone="no"?>
<!-- Created with Inkscape (http://www.inkscape.org/) -->

<svg
   width="30mm"
   height="30mm"
   viewBox="0 0 113.38583 113.38583"
   version="1.1"
   id="svg5"
   inkscape:version="1.1.1 (3bf5ae0d25, 2021-09-20)"
   sodipodi:docname="1_1.svg"
   xmlns:inkscape="http://www.inkscape.org/namespaces/inkscape"
   xmlns:sodipodi="http://sodipodi.sourceforge.net/DTD/sodipodi-0.dtd"
   xmlns="http://www.w3.org/2000/svg"
   xmlns:svg="http://www.w3.org/2000/svg">
  <sodipodi:namedview
     id="namedview7"
     pagecolor="#ffffff"
     bordercolor="#999999"
     borderopacity="1"
     inkscape:pageshadow="0"
     inkscape:pageopacity="0"
     inkscape:pagecheckerboard="0"
     inkscape:document-units="mm"
     showgrid="false"
     showguides="true"
     inkscape:guide-bbox="true"
     units="mm"
     inkscape:zoom="4.2426407"
     inkscape:cx="43.133514"
     inkscape:cy="55.625733"
     inkscape:window-width="1920"
     inkscape:window-height="1014"
     inkscape:window-x="0"
     inkscape:window-y="0"
     inkscape:window-maximized="1"
     inkscape:current-layer="layer1">
    <sodipodi:guide
       position="56.692915,-127.41418"
       orientation="-1,0"
       id="guide926"
       inkscape:label=""
       inkscape:locked="false"
       inkscape:color="rgb(0,0,255)" />
    <sodipodi:guide
       position="213.60057,56.692915"
       orientation="0,1"
       id="guide928"
       inkscape:label=""
       inkscape:locked="false"
       inkscape:color="rgb(0,0,255)" />
  </sodipodi:namedview>
  <defs
     id="defs2" />
  <g
     inkscape:label="图层 1"
     inkscape:groupmode="layer"
     id="layer1">
    <path
       style="color:#000000;fill:#ff0000;stroke-linecap:round;stroke-linejoin:round;-inkscape-stroke:none;paint-order:stroke markers fill"
       d="M 56.693359,0 C 25.425584,-1.7676497e-7 1.7676499e-7,25.425586 0,56.693359 c -2.3568666e-6,31.267776 25.425582,56.693361 56.693359,56.693361 31.267779,0 56.693361,-25.425583 56.693361,-56.693361 C 113.38672,25.425584 87.961136,-2.9460829e-6 56.693359,0 Z m 0,7.2519531 c 27.348018,-2.6e-6 49.439451,22.0933909 49.439451,49.4414059 0,27.348017 -22.091432,49.439461 -49.439451,49.439451 -27.348017,0 -49.4414079,-22.091435 -49.4414059,-49.439451 2e-7,-27.348013 22.0933909,-49.441406 49.4414059,-49.4414059 z"
       id="path976" />
    <g
       aria-label="1"
       id="text3400"
       style="font-size:120.904px;line-height:1.25;font-family:Consolas;-inkscape-font-specification:Consolas;stroke-width:1.59946">
      <path
         d="M 22.798597,44.180303 V 27.650459 Q 34.133347,22.927647 44.051253,15.371147 H 61.053378 V 98.964928 H 42.634409 V 33.317834 q -9.445625,6.611938 -19.835812,10.862469 z"
         style="font-family:'方正大黑简体';-inkscape-font-specification:'方正大黑简体';text-align:center;text-anchor:middle"
         id="path66866" />
    </g>
    <g
       aria-label="幼女"
       id="text17066"
       style="font-size:19.9989px;line-height:1.25;font-family:Consolas;-inkscape-font-specification:Consolas;stroke-width:0.661417">
      <path
         d="m 65.285805,73.886664 c 0.579968,-0.299983 1.479918,-0.53997 6.559639,-1.379924 l 0.159991,0.799956 1.279929,-0.579968 c -0.279984,0.339981 -0.599967,0.639965 -0.939948,0.939948 0.53997,0.35998 1.319927,1.239932 1.659909,1.799901 3.019833,-2.619856 3.799791,-6.699631 4.019778,-12.299323 h 2.019889 c -0.06,6.439646 -0.139992,8.799516 -0.499972,9.319487 -0.159991,0.259986 -0.339981,0.339981 -0.639965,0.319982 -0.379979,0 -1.079941,0 -1.879897,-0.06 0.359981,0.639965 0.619966,1.599912 0.659964,2.259875 0.939948,0.02 1.8199,0.04 2.439866,-0.07999 0.619966,-0.119994 1.059942,-0.339982 1.479918,-0.999945 0.55997,-0.879952 0.639965,-3.739794 0.719961,-11.919344 0,-0.279985 0.02,-1.039943 0.02,-1.039943 H 78.0851 l 0.02,-4.439756 h -2.339871 v 4.439756 h -2.419867 v 2.199879 h 2.379869 c -0.09999,3.659798 -0.479974,6.499642 -1.779902,8.639524 -0.35998,-1.359925 -1.079941,-3.119828 -1.839899,-4.53975 l -1.879896,0.819955 c 0.339981,0.699962 0.659963,1.499918 0.959947,2.279875 l -2.939838,0.439975 c 1.839898,-2.459864 3.659798,-5.459699 5.07972,-8.53953 L 70.985491,61.24736 c -0.279985,0.71996 -0.599967,1.43992 -0.939948,2.159881 l -2.479864,0.159991 c 1.039943,-1.8199 2.079886,-4.039778 2.759848,-6.139662 l -2.479863,-0.91995 c -0.599967,2.579858 -1.839899,5.399703 -2.259876,6.079666 -0.419977,0.759958 -0.739959,1.199934 -1.159936,1.339926 0.279984,0.639965 0.679962,1.8199 0.799956,2.319872 l 0.02,-0.06 c 0.399978,-0.159991 1.019944,-0.299984 3.679797,-0.559969 -1.099939,2.019888 -2.159881,3.659798 -2.659853,4.239766 -0.759959,1.019944 -1.239932,1.599912 -1.8199,1.759903 0.299983,0.639965 0.71996,1.799901 0.839954,2.259876 z"
         style="font-weight:bold;font-family:'思源黑体 CN';-inkscape-font-specification:'思源黑体 CN Bold';writing-mode:tb-rl"
         id="path66869" />
      <path
         d="m 76.465189,83.566133 c -0.53997,2.219878 -1.299928,3.919785 -2.379869,5.219713 -1.239931,-0.559969 -2.519861,-1.119938 -3.799791,-1.63991 0.479974,-1.07994 0.999945,-2.299873 1.499918,-3.579803 z m -9.819459,4.719741 c 1.779902,0.699961 3.599802,1.499917 5.319707,2.319872 -1.859898,1.179935 -4.339761,1.8199 -7.599582,2.199879 0.519972,0.639965 1.059942,1.679907 1.299929,2.439866 3.919784,-0.639965 6.819624,-1.599912 8.959507,-3.319818 2.35987,1.219933 4.439755,2.419867 5.97967,3.419812 l 1.899896,-2.299873 c -1.539915,-0.899951 -3.6398,-1.99989 -5.959672,-3.09983 1.199934,-1.63991 2.059887,-3.699796 2.639855,-6.379649 h 3.419811 v -2.579858 h -9.879456 c 0.499973,-1.419922 0.939948,-2.859842 1.259931,-4.219768 l -2.579858,-0.35998 c -0.35998,1.45992 -0.859953,3.019834 -1.439921,4.579748 h -5.259711 v 2.579858 h 4.239767 c -0.759958,1.759903 -1.559914,3.399813 -2.299873,4.719741 z"
         style="font-weight:bold;font-family:'思源黑体 CN';-inkscape-font-specification:'思源黑体 CN Bold';writing-mode:tb-rl"
         id="path66871" />
    </g>
  </g>
</svg>
